<?xml version="1.0" encoding="UTF-8" standalone="no"?>
<!-- Created with Inkscape (http://www.inkscape.org/) -->

<svg
   xmlns:dc="http://purl.org/dc/elements/1.1/"
   xmlns:cc="http://creativecommons.org/ns#"
   xmlns:rdf="http://www.w3.org/1999/02/22-rdf-syntax-ns#"
   xmlns:svg="http://www.w3.org/2000/svg"
   xmlns="http://www.w3.org/2000/svg"
   xmlns:sodipodi="http://sodipodi.sourceforge.net/DTD/sodipodi-0.dtd"
   xmlns:inkscape="http://www.inkscape.org/namespaces/inkscape"
   width="210mm"
   height="297mm"
   viewBox="0 0 210 297"
   version="1.1"
   id="svg8"
   inkscape:version="0.92.2 (5c3e80d, 2017-08-06)"
   sodipodi:docname="experiments.svg">
  <defs
     id="defs2" />
  <sodipodi:namedview
     id="base"
     pagecolor="#ffffff"
     bordercolor="#666666"
     borderopacity="1.0"
     inkscape:pageopacity="0.0"
     inkscape:pageshadow="2"
     inkscape:zoom="0.35"
     inkscape:cx="-446.40896"
     inkscape:cy="734.01111"
     inkscape:document-units="mm"
     inkscape:current-layer="layer1"
     showgrid="false"
     inkscape:window-width="1920"
     inkscape:window-height="1017"
     inkscape:window-x="-8"
     inkscape:window-y="-8"
     inkscape:window-maximized="1" />
  <metadata
     id="metadata5">
    <rdf:RDF>
      <cc:Work
         rdf:about="">
        <dc:format>image/svg+xml</dc:format>
        <dc:type
           rdf:resource="http://purl.org/dc/dcmitype/StillImage" />
        <dc:title></dc:title>
      </cc:Work>
    </rdf:RDF>
  </metadata>
  <g
     inkscape:label="Layer 1"
     inkscape:groupmode="layer"
     id="layer1">
    <path
       style="opacity:1;fill:#aa8800;fill-opacity:1;stroke:none;stroke-width:25;stroke-linecap:round;stroke-linejoin:round;stroke-miterlimit:4;stroke-dasharray:none;stroke-opacity:1"
       d="m -252.35938,54.1875 c -48.04981,-0.262452 -93.2233,35.821127 -103.83056,82.65516 -11.62509,45.09112 9.95663,96.18108 50.536,119.11849 37.39286,22.17571 88.03231,18.97396 121.86878,-8.54709 33.79529,-26.44657 49.41442,-73.84878 36.87449,-115.05576 -11.45094,-40.259848 -47.83132,-72.186073 -89.54636,-77.192284 -5.26842,-0.707225 -10.58721,-1.027293 -15.90235,-0.978516 z m 1.55274,48.79297 c 32.57827,-0.94375 61.50509,29.58184 59.30745,61.99388 -0.7802,30.51626 -28.18429,57.34259 -58.76643,56.9944 -30.36357,0.85657 -58.52814,-24.71694 -60.10743,-55.19922 -2.60833,-29.95712 20.80713,-59.75144 50.92774,-63.17773 2.86016,-0.40867 5.74968,-0.60882 8.63867,-0.61133 z"
       id="path826"
       inkscape:connector-curvature="0" />
    <path
       inkscape:connector-curvature="0"
       id="path824"
       d="M -250.97619,58.119303 A 104.32143,104.32143 0 0 0 -355.29748,162.44058 104.32143,104.32143 0 0 0 -250.97619,266.76186 104.32143,104.32143 0 0 0 -146.65491,162.44058 104.32143,104.32143 0 0 0 -250.97619,58.119303 Z m 0,40.82128 a 63.499997,63.499997 0 0 1 63.5,63.499997 63.499997,63.499997 0 0 1 -63.5,63.5 63.499997,63.499997 0 0 1 -63.5,-63.5 63.499997,63.499997 0 0 1 63.5,-63.499997 z"
       style="opacity:1;fill:#f6ce33;fill-opacity:1;stroke:none;stroke-width:25;stroke-linecap:round;stroke-linejoin:round;stroke-miterlimit:4;stroke-dasharray:none;stroke-opacity:1" />
    <path
       style="opacity:0.65193368;fill:#ffe680;fill-opacity:1;stroke:none;stroke-width:94.4881897;stroke-linecap:round;stroke-linejoin:round;stroke-miterlimit:4;stroke-dasharray:none;stroke-opacity:1"
       d="m -982.85742,251.13867 c -168.12048,14.26213 -317.16498,160.10985 -328.62498,330.50195 -15.6427,165.89806 95.201,335.51743 256.5683,380.64454 23.5372,7.13802 47.7072,11.69593 72.05668,13.8125 v -93.57422 c -126.72898,-16.63061 -236.39238,-130.7418 -236.33398,-260.87891 -4.2991,-133.05687 101.3567,-262.98513 235.95312,-275.50781 0.12683,-0.0168 0.25401,-0.0303 0.38086,-0.0469 z"
       transform="scale(0.26458333)"
       id="path830"
       inkscape:connector-curvature="0" />
    <circle
       style="opacity:1;fill:#aa0000;fill-opacity:1;stroke:none;stroke-width:25;stroke-linecap:round;stroke-linejoin:round;stroke-miterlimit:4;stroke-dasharray:none;stroke-opacity:1"
       id="path842"
       cx="-251.12158"
       cy="162.38295"
       r="64.255951" />
    <ellipse
       cy="162.38295"
       cx="-251.12158"
       id="circle846"
       style="opacity:0.53038671;fill:#ff5555;fill-opacity:1;stroke:none;stroke-width:21.46252823;stroke-linecap:round;stroke-linejoin:round;stroke-miterlimit:4;stroke-dasharray:none;stroke-opacity:1"
       rx="53.672619"
       ry="56.696426" />
    <path
       style="opacity:0.81215467;fill:#ffaaaa;fill-opacity:1;stroke:none;stroke-width:64.89457703;stroke-linecap:round;stroke-linejoin:round;stroke-miterlimit:4;stroke-dasharray:none;stroke-opacity:1"
       d="m -962.85742,443.0293 a 162.28571,171.42856 0 0 0 -148.54878,170.70117 162.28571,171.42856 0 0 0 0.8457,17.36133 h 51.9023 a 110.85714,117.10261 0 0 1 -1.3203,-17.36133 110.85714,117.10261 0 0 1 97.12108,-116.05274 z"
       transform="scale(0.26458333)"
       id="ellipse848"
       inkscape:connector-curvature="0" />
  </g>
</svg>
